<svg width="320" height="240" viewBox="0 0 320 240" fill="none" xmlns="http://www.w3.org/2000/svg">
  <!-- Background -->
  <rect width="320" height="240" fill="#1a1a1a"/>
  
  <!-- Subtle grid -->
  <defs>
    <pattern id="physicsGrid" width="20" height="20" patternUnits="userSpaceOnUse">
      <path d="M 20 0 L 0 0 0 20" fill="none" stroke="#333" stroke-width="1" opacity="0.1"/>
    </pattern>
  </defs>
  <rect width="320" height="240" fill="url(#physicsGrid)"/>
  
  <!-- Gravity well -->
  <circle cx="160" cy="120" r="50" fill="none" stroke="#ffffff" stroke-width="1" opacity="0.2"/>
  <circle cx="160" cy="120" r="30" fill="none" stroke="#ffffff" stroke-width="1" opacity="0.3"/>
  <circle cx="160" cy="120" r="10" fill="#ffffff" opacity="0.6"/>
  
  <!-- Bouncing ball -->
  <circle cx="80" cy="80" r="8" fill="#ffffff" opacity="0.8">
    <animateMotion dur="3s" repeatCount="indefinite" 
      path="M 0,0 Q 40,-20 80,0 Q 120,20 160,0 Q 120,-20 80,0 Q 40,20 0,0"/>
  </circle>
  
  <!-- Pendulum -->
  <g transform-origin="260 60">
    <line x1="260" y1="60" x2="260" y2="120" stroke="#ffffff" stroke-width="2" opacity="0.4"/>
    <circle cx="260" cy="120" r="6" fill="#ffffff" opacity="0.8"/>
    <animateTransform attributeName="transform" type="rotate" 
      values="-30 260 60;30 260 60;-30 260 60" dur="2s" repeatCount="indefinite"/>
  </g>
  
  <!-- Spring -->
  <path d="M 40,160 Q 45,150 40,140 Q 35,130 40,120 Q 45,110 40,100 Q 35,90 40,80" 
        stroke="#ffffff" stroke-width="2" fill="none" opacity="0.5">
    <animateTransform attributeName="transform" type="scaleY" 
      values="1;1.3;1" dur="1.5s" repeatCount="indefinite"/>
  </path>
  
  <!-- Force vectors -->
  <g opacity="0.4">
    <line x1="100" y1="40" x2="120" y2="40" stroke="#ffffff" stroke-width="2"/>
    <polygon points="120,40 115,35 115,45" fill="#ffffff"/>
    <line x1="200" y1="40" x2="180" y2="40" stroke="#ffffff" stroke-width="2"/>
    <polygon points="180,40 185,35 185,45" fill="#ffffff"/>
  </g>
  
  <!-- Physics equations backdrop -->
  <text x="160" y="200" font-family="Arial, sans-serif" font-size="14" font-weight="bold" text-anchor="middle" fill="#ffffff" opacity="0.6">PHYSICS</text>
  <text x="160" y="220" font-family="Arial, sans-serif" font-size="12" text-anchor="middle" fill="#ffffff" opacity="0.4">MOTION</text>
</svg>